<svg xmlns="http://www.w3.org/2000/svg" version="1" shape-rendering="geometricPrecision" text-rendering="geometricPrecision" image-rendering="optimizeQuality" fill-rule="evenodd" clip-rule="evenodd" viewBox="0 0 3528 3528"><circle fill="#6DDB0D" cx="1764" cy="1764" r="1764"/><path fill="#1FAB00" d="M2514 976l1001 1001a1766 1766 0 0 1-1542 1539L973 2516 2513 976z"/><circle fill="#ff0" cx="1764" cy="1764" r="1089"/><g fill="#434242"><path d="M846 2350c-98-154-159-333-169-527 141-42 376-29 483-157 65-78 51-98 118-186 80-106 161-107 224-163 58-52 146-98 155-176 9-77-7-124 6-184 5-21 25-45 47-47 173-16 173 204 146 311-21 81-76 148-110 224-23 50-41 123-51 178-17 94-32 129-53 203-79 279-264 411-174 336a795 795 0 0 0 201-307c35-107 60-316 100-372 8-11 9-12 20-7l229 103c273 123 18 855-282 853-198-1-377-105-578-127-92-10-182 15-273 34l-40 10z"/><path stroke="#ff0" stroke-width="25" stroke-miterlimit="23" d="M1966 1560h375c57 0 103 46 103 103v7c0 57-46 103-103 103h-375c-57 0-103-46-103-103v-7c0-57 46-103 103-103zM1940 1789h342c57 0 103 46 103 103v5c0 57-46 103-103 103h-342c-57 0-103-46-103-103v-5c0-57 46-103 103-103zM1881 2018h356c53 0 97 44 97 97s-44 97-97 97h-356c-53 0-97-44-97-97s44-97 97-97zM1844 2224h323c50 0 91 41 91 91s-41 91-91 91h-323c-50 0-91-41-91-91s41-91 91-91z"/></g><path fill="#FEFEFE" fill-rule="nonzero" d="M1081 2927l-39-38c20-22 41-36 64-40s47 0 72 13c31 16 52 39 61 71 10 32 5 66-14 103-20 39-45 65-77 77-31 12-64 9-97-7-29-15-48-35-58-61-6-15-6-34-2-56l53 12c-3 14-2 26 3 38s14 21 27 27c18 9 35 10 52 3s33-25 47-53c15-30 20-54 16-72s-15-31-32-40c-13-6-26-8-39-4s-26 13-39 28zM1006 2921c-17 21-34 36-52 46a121 121 0 0 1-84 10c-17-5-34-14-51-27-31-24-47-53-51-87-3-34 9-67 35-101 27-33 57-52 90-57 33-4 65 6 96 30 31 25 48 53 51 87 3 33-8 66-35 99zm-44-33c19-23 27-46 26-66-1-21-10-38-27-51a70 70 0 0 0-55-15c-20 4-40 17-59 41s-28 46-27 66 10 37 28 51c17 14 36 19 56 15 20-3 39-17 58-41zM686 2830l-35-40 48-42c15-13 25-23 29-28s6-13 4-22c-1-9-7-19-16-30-8-9-15-15-23-21-8-5-16-9-23-10l-86 75-35-40 200-174 35 40-80 70a158 158 0 0 1 52 38c17 20 27 41 29 62 2 22-8 42-31 63l-67 59zM737 2482l-228 134-100-169 39-23 72 123 51-30-67-114 38-23 68 115 62-37-75-128 38-22zM611 2243l-205 79 28 74-41 16-77-196 42-17 29 73 205-79zM517 1910l13 57-54 36 24 103 64 8 13 55-281-41-13-55 235-163zm-80 119l-88 58 104 13-16-70z"/><path fill="#FEFEFE" fill-rule="nonzero" d="M520 1916l-264 8-2-54 104-3-3-105-104 3-2-53 265-8 2 54-116 3 3 105 116-3zM253 1653l6-50 175 21-162-128 6-52 263 31-6 50-171-21 159 127-6 53zM551 1457l-251-86 64-186 42 14-46 136 55 19 44-126 42 14-43 126 68 24 48-140 42 14zM453 996l31-44 180 127 60-85-180-127 30-44 181 127 13-18 83 59-25 36-48-33-108 154zM807 959L615 776l136-142 32 31-98 103 42 41 92-97 32 31-92 96 53 50 102-107 32 31zM956 808L802 592l44-31 60 85 86-61-61-85 44-31 153 216-43 31-67-94-86 60 67 95zM1047 419l50-19 38 99 67-26c18-7 34-10 48-10 15 0 28 4 42 13 13 9 23 22 29 37 7 17 8 33 4 48s-11 27-20 35-24 16-45 24l-117 45-96-247zm130 186l49-19c15-6 26-11 32-15s10-9 12-17c3-7 3-15 0-22-4-11-11-18-21-20s-25 0-45 8l-51 20 25 65zm105-277l50-19 96 247-50 19-96-247zM1543 263l50-4 15 176 92-184 54-5 21 264-50 5-14-173-93 181-53 5zM1960 261l53 9-20 111c12 1 20-1 25-5s14-17 26-37c16-26 30-42 42-47s30-5 55-1l8 1-7 39-7-2c-11-2-19-2-24 0s-10 5-14 10-11 15-20 31l-14 21c-5 5-12 10-23 14 11 5 20 14 26 25s12 27 18 47l23 78-62-11-19-73-2-6-4-13c-5-14-9-23-12-27-4-4-10-7-19-8l-20 114-53-9 47-261z"/><path fill="#FEFEFE" fill-rule="nonzero" d="M2325 638l-55-19-2-64-100-34-40 50-54-18 184-217 54 18 14 285zm-59-131l-3-105-66 81 68 24zM2421 395l46 27-32 55-18 36c-2 7-1 14 3 22s12 16 25 23c10 6 19 10 28 12s17 3 25 2l57-99 46 27-133 229-46-27 54-92c-12-1-23-3-33-7-10-3-20-7-29-12-23-13-39-30-48-49-9-20-6-43 9-69l45-77zM2486 739l171-202 150 126-29 35-109-92-38 44 102 86-29 34-102-85-46 55 113 95-29 34zM2831 941l22 50c-27 13-52 17-75 12s-43-18-62-39c-23-27-33-56-30-89s21-63 52-90c33-29 67-43 100-42s62 16 87 44c21 24 31 51 30 78-1 17-7 34-19 52l-44-32c8-11 12-23 12-36-1-13-6-24-15-35a60 60 0 0 0-47-22c-19 0-40 10-64 31-25 22-39 42-42 61-3 18 2 35 15 49 9 11 21 17 34 19 14 2 29-2 47-11zM2821 1098l190-111-40-68 39-23 106 182-38 22-40-67-190 111zM3135 1115l38 99c8 20 12 34 15 45a68 68 0 0 1-13 57 63 63 0 0 1-61 22c-12-3-23-8-32-17 1 17-2 31-9 43s-18 21-33 27c-11 4-23 6-36 5s-24-5-34-12-18-16-25-29l-25-59-33-84 247-96zm-22 66l-57 22 13 33 15 36c4 8 10 14 17 17s14 3 22 0 13-7 16-14c3-6 4-13 1-22l-16-43-11-29zm-98 38l-66 26 18 46 15 34c4 7 10 12 17 14 7 3 15 2 24-1 7-3 13-7 17-13s6-12 5-20c0-8-5-23-14-46l-16-40z"/><path fill="#FEFEFE" fill-rule="nonzero" d="M3009 1645l-10-57 55-33-18-104-63-11-10-56 279 56 10 56-243 151zm86-115l90-53-103-18 13 71z"/></svg>