<svg xmlns="http://www.w3.org/2000/svg" width="34" height="34" fill="none" viewBox="0 0 20 20" data-svg="calendar"><path fill="#000" fill-rule="evenodd" stroke="#000" stroke-width=".4" d="M3 2.22h-.7a.3.3 0 0 0-.3.3v14.65c0 .17.14.3.3.3H13.1a3.05 3.05 0 1 0 4.16-4.16V2.53a.3.3 0 0 0-.3-.31H3zm13.64.61H2.61v2.44h14.03V2.83zM2.61 5.88v10.98h10.2a3.05 3.05 0 0 1 3.83-3.82V5.88H2.61zm10.68 10.07a2.44 2.44 0 1 0 4.88 0 2.44 2.44 0 0 0-4.88 0z" clip-rule="evenodd"></path><path fill="#000" d="M4.5 7.5H6V9H4.5zM7.5 7.5H9V9H7.5zM10.5 7.5H12V9h-1.5zM13.5 7.5H15V9h-1.5zM4.5 10.5H6V12H4.5zM7.5 10.5H9V12H7.5zM10.5 10.5H12V12h-1.5zM13.5 10.5H15V12h-1.5zM4.5 13.5H6V15H4.5zM7.5 13.5H9V15H7.5zM10.5 13.5H12V15h-1.5zM16.76 15.24l-1.31 1.05-.73-.72a.3.3 0 1 0-.43.43l.92.92a.3.3 0 0 0 .4.02l1.53-1.22a.3.3 0 1 0-.38-.48z"></path></svg>