<svg width="36" height="36" fill="none" xmlns="http://www.w3.org/2000/svg" viewBox="0 0 20 20" data-svg="kit"><g clip-path="url(#clip0)" fill="#000"><path d="M6.1 14.45a.4.4 0 100 .78.4.4 0 000-.78z"></path><path d="M17.58 7.42l2.3-2.3a.4.4 0 00-.16-.65l-5.6-1.73a3.9 3.9 0 00-7.35-.3L.27 4.48a.4.4 0 00-.16.65l2.37 2.36-1.5 2.49a.4.4 0 00.22.57l2.16.72v6c0 .17.1.31.25.37l6.26 2.35c.08.02.16.03.25 0l7.03-2.34a.4.4 0 00.27-.37V11.1l2.3-.73a.4.4 0 00.17-.65l-2.3-2.3zM14.3 3.91l-.01-.3 4.58 1.42-1.94 1.95-3.19-1.07c.36-.6.56-1.3.56-2zM7.43 2.89a3.13 3.13 0 115.92 2.04 3.13 3.13 0 01-5.92-2.04zm-6.3 2.13l5.4-1.68a3.94 3.94 0 00.39 2.35L3.07 6.98 1.12 5.02zm.78 4.93l1.23-2.06L9.41 10l-1.23 2.05L1.9 9.95zm7.7 9.1L4.14 17v-5.48c4.3 1.42 4.1 1.38 4.21 1.38a.4.4 0 00.34-.19l.92-1.53v7.87zm.39-9.7L4.2 7.42l3.16-1.05a3.9 3.9 0 005.89.2l2.55.85L10 9.35zm6.64 7.63l-6.25 2.09v-8.2l1.39 1.74c.1.13.26.18.42.13l4.44-1.4v5.64zm-4.42-5.07l-1.57-1.95 6.28-2.1 1.95 1.96-6.66 2.1z"></path><path d="M8.57 15.32l-.86-.33a.4.4 0 00-.28.74l.87.32a.4.4 0 10.27-.73zM8.57 16.99l-2.34-.88a.4.4 0 10-.27.73l2.34.88a.4.4 0 10.27-.73zM12.62 2.46a.4.4 0 00-.55 0L10 4.53l-.5-.5a.4.4 0 00-.56.54l.78.78c.16.16.4.16.56 0l2.34-2.34a.4.4 0 000-.55z"></path></g><defs><clipPath id="clip0"><path fill="#fff" d="M0 0h20v20H0z"></path></clipPath></defs></svg>