<svg width="36" height="36" viewBox="0 0 20 20" fill="none" xmlns="http://www.w3.org/2000/svg" data-svg="reinforcement"><path d="M18.5 14h.5a9 9 0 10-18 0h.5c0-4.42 4.08-8.5 8.5-8.5s8.5 4.08 8.5 8.5z" fill="#000"></path><path d="M12.5 14h.5a3 3 0 10-6 0h.5a2.5 2.5 0 015 0z" fill="#000"></path><path d="M1 13.75h6.5m11.5 0h-6.5M10 5.5v5.75M6.21 6.3l2.44 5.48M2.52 9.33l5.03 3.27M11.54 11.8l2.44-5.48M12.48 12.85l5.03-3.27" stroke="#000"></path><path d="M15.5 14h.5a6 6 0 00-12 0h.5c0-2.9 2.6-5.5 5.5-5.5s5.5 2.6 5.5 5.5z" fill="#000"></path></svg>