<svg width="34" height="34" fill="none" xmlns="http://www.w3.org/2000/svg" viewBox="0 0 20 20" data-svg="door"><g clip-path="url(#clip0)" fill="#000"><path fill-rule="evenodd" clip-rule="evenodd" d="M3.88 0h12.24c.17 0 .3.13.3.3v19.4a.3.3 0 01-.3.3H3.88a.3.3 0 01-.3-.3V.3c0-.17.13-.3.3-.3zm11.55.99H4.57v18.02h10.86V.99z"></path><path d="M6.46 7.8c0 .17.14.3.3.3h6.48a.3.3 0 00.3-.3V3.3a.3.3 0 00-.3-.3H6.76a.3.3 0 00-.3.3v4.5zm.79-4.01h5.5v3.52h-5.5V3.79zM14.02 10.62a.55.55 0 00-1.03-.29h-.7a.3.3 0 100 .59h.7a.55.55 0 001.03-.3z"></path></g><defs><clipPath id="clip0"><path fill="#fff" d="M0 0h20v20H0z"></path></clipPath></defs></svg>