<svg width="36" height="36" fill="none" xmlns="http://www.w3.org/2000/svg" viewBox="0 0 20 20" data-svg="arc"><path d="M17.5 10H19a9 9 0 10-18 0h1.5c0-4.4 3-7.5 7.5-7.5 4.4 0 7.5 3 7.5 7.5z" fill="#000"></path><path d="M12.5 10h.5a3 3 0 10-6 0h.5a2.5 2.5 0 015 0z" fill="#000"></path><path d="M15 10h1a6 6 0 00-12 0h1c0-2.9 2.1-5 5-5s5 2.1 5 5z" fill="#000"></path><path d="M5 13.8L9.5 18l5.5-6" stroke="#000" stroke-width="1.5"></path><path stroke="#000" stroke-width=".5" d="M10 2v5.3M6 2.4l2.4 5.5M2.4 5.5l5 3.3M11.8 7.9l2.4-5.5M12.6 9.1l5-3.3"></path></svg>