<svg width="34" height="34" fill="none" xmlns="http://www.w3.org/2000/svg" viewBox="0 0 20 20" data-svg="layers"><path d="M9.42 15.14a.98.98 0 000 0zM4.91 11.76l-.34-.2h-.01l.35.2h.01s0 0 0 0zm10.33.62l-4.8 2.75 4.8-2.75.01-.01h-.01z" fill="#000" stroke="#000" stroke-width=".25"></path><path d="M18.3 10c0-.38-.2-.73-.53-.92l-1.64-.95 1.64-.94c.52-.3.7-1 .36-1.51-.1-.14-.22-.25-.36-.33l-7.32-4.2a1.07 1.07 0 00-1.06-.01l-7.35 4.2a1.06 1.06 0 000 1.85l1.65.94-1.65.95c-.53.3-.7 1-.37 1.5.1.14.22.26.37.34l1.65.95-1.65.94a1.06 1.06 0 000 1.85l7.35 4.2c.32.19.73.19 1.06 0l7.32-4.2c.52-.3.7-1 .36-1.51-.1-.14-.22-.26-.36-.34l-1.64-.94 1.64-.95c.34-.19.53-.53.53-.92zM2.38 6.58a.36.36 0 010-.63l7.36-4.2a.36.36 0 01.36 0l7.32 4.2c.24.14.24.5 0 .63l-2.18 1.25-5.14 2.95a.36.36 0 01-.36 0L4.57 7.83 2.38 6.58zm15.04 6.84c.24.14.24.49 0 .63l-7.32 4.2a.36.36 0 01-.36 0l-7.36-4.2a.36.36 0 010-.63l2.01-1.15h0l.16.1s0 0 0 0h.03v.01l4.8 2.75c.28.16.62.18.9.07h0l.17-.07 4.79-2.75.01-.01.17-.1 2 1.15zm0-3.1l-2.18 1.24-.35.2-.02.01-4.77 2.75a.36.36 0 01-.36 0l-4.82-2.76s0 0 0 0l-.36-.2-2.18-1.25a.36.36 0 010-.62L4.4 8.54l5 2.85c.32.2.74.2 1.06 0l4.97-2.85 2 1.15c.24.13.24.49 0 .62z" fill="#000" stroke="#000" stroke-width=".25"></path></svg>