<svg xmlns="http://www.w3.org/2000/svg" shape-rendering="geometricPrecision" text-rendering="geometricPrecision" image-rendering="optimizeQuality" fill-rule="evenodd" viewBox="0 0 10000 11000"><style>.B{stroke-miterlimit:23}.C{fill:none}.D{stroke-width:70}.E{fill:#63b13a}.F{stroke:#b2b4b3}.G{stroke-linecap:round}</style><g stroke="#b2b3b3" class="B D"><path fill="#c5c6c6" d="M9500 10423V8588a4500 4500 0 0 0-9000 0v1835h9000z"/><path fill="#d9dada" d="M8870 10058V8434a3870 3870 0 0 0-7740 0v1624h7740z"/><path fill="#ebecec" d="M8325 9743V8302a3325 3325 0 0 0-6650 0v1441h6650z"/><g fill="#fff"><path d="M7860 9474V8189a2859 2859 0 1 0-5720 0v1285h5720z"/><path d="M7460 9242V8092a2460 2460 0 1 0-4920 0v1150h4920z"/><path d="M7115 9042V8008a2115 2115 0 0 0-4230 0v1034h4230z"/><path d="M6820 9042V7936a1820 1820 0 0 0-3640 0v1106h3640z"/></g></g><path d="M9500 10423L6820 8871H3180L500 10423z" class="E"/><path stroke="#4d4d4d" d="M9500 10423L6820 8871M500 10426l2680-1555" class="B C D G"/><path fill="#71522f" d="M8103 10423h1347L6770 8871h-454z"/><g class="B D"><g class="C F"><path d="M8325 9743v400m-465-671v344m-400-634v356m-345-589v348" class="G"/><g stroke-linejoin="round"><path d="M4425 6650h1150v2221H4425z"/><path d="M4585 6840h820v740h-820z"/></g></g><path fill="#ffd62b" fill-rule="nonzero" d="M4425 8871h1150l800 1552H3625l800-1552zm-400 776" class="F"/><g stroke="#727271" class="C"><path d="M6786 10233v-50c0-100 100-100 100-100h1600s100 0 100 100v50m-2144-434v-43c0-86 86-86 86-86h1376s86 0 86 86v43m-1767-297v-37c0-74 74-74 74-74h1183s74 0 74 74v37m-1488-232v-32c0-64 64-64 64-64h1018s64 0 64 64v32m-1281-200v-27c0-55 55-55 55-55h876s55 0 55 55v27"/><path d="M6190 8927v-50c0-100 97-15 97-15l1553 1353s97 85 97 185v50"/></g></g><g fill="#727271"><circle cx="7691" cy="10083" r="75"/><circle cx="7216" cy="9670" r="75"/><circle cx="6896" cy="9391" r="75"/><circle cx="6647" cy="9175" r="75"/><circle cx="6433" cy="8988" r="75"/></g><g stroke="#727271" class="B C D"><path d="M3214 10208v-50c0-100-100-100-100-100H1514s-100 0-100 100v50m2115-409v-43c0-86-86-86-86-86H2067s-86 0-86 86v43m1796-322v-37c0-74-74-74-74-74H2520s-74 0-74 74v37m1488-232v-32c0-64-64-64-64-64H2852s-64 0-64 64v32m1281-200v-27c0-55-55-55-55-55h-876s-55 0-55 55v27"/><path d="M3810 8902v-50c0-100-97-15-97-15l-1553 1353s-97 85-97 185v50"/></g><g fill="#727271"><circle cx="2309" cy="10058" r="75"/><circle cx="2755" cy="9670" r="75"/><circle cx="3104" cy="9366" r="75"/><circle cx="3353" cy="9150" r="75"/><circle cx="3567" cy="8963" r="75"/></g><g class="B D F"><path fill="#ebecec" d="M500 10426h9000v477H500z"/><path d="M9433 7796H6815m-3630 0H567m5704-1162l1776-1358M3729 6634L1953 5276m3047 840l4-2028" class="C"/></g><circle cx="9850" cy="10500" r="100" class="E"/><circle fill="#fff" cx="1013" cy="10128" r="100"/><g class="E"><circle cx="150" cy="10500" r="100"/><circle cx="150" cy="7000" r="100"/><circle cx="150" cy="2811" r="100"/><circle cx="150" cy="204" r="100"/><circle cx="9850" cy="7000" r="100"/><circle cx="9850" cy="2811" r="100"/><circle cx="9850" cy="204" r="100"/><circle cx="8500" cy="5759" r="100"/><circle cx="6375" cy="4302" r="100"/><circle cx="8500" cy="7757" r="100"/><circle cx="6228" cy="8698" r="100"/><circle cx="5000" cy="7218" r="100"/><circle cx="4425" cy="6650" r="100"/><circle cx="1299" cy="6018" r="100"/><circle cx="7285" cy="5887" r="100"/><circle cx="7860" cy="9450" r="100"/><circle cx="8325" cy="9743" r="100"/></g><g stroke="#63b13a" stroke-width="35" class="B C"><path d="M8500 7657v-407c0-138 112-250 250-250h1000M7285 5987v763c0 138 112 250 250 250h2215M8500 5659V3061c0-138 112-250 250-250h1000"/><path d="M6475 4302h2775c138 0 250-112 250-250V454c0-138 112-250 250-250M913 10128H400a250 250 0 0 0-250 250v22m4275-3650v100c0 83-67 150-150 150H250m0-6796c138 0 250 112 250 250v5314c0 138 112 250 250 250h449"/><path d="M5000 7118V5526c0-138-112-250-250-250H1750a250 250 0 0 1-250-250V3061c0-138-112-250-250-250H250m9600 7589v-700c0-138-112-250-250-250H7960"/></g><circle cx="4950" cy="3241" r="1098" class="E"/><path fill="#4e9d36" d="M6041 3368a1097 1097 0 0 1-964 963l-24 2-512-422 1085-1072 417 511-2 18z"/><circle fill="#feed00" cx="4950" cy="3241" r="786"/><path fill="#434242" d="M5292 2880h127v108h126v170h109v165h-109v170h-126v108h-127v-278h-684v278h-127v-108h-126v-170h-108v-165h108v-170h126v-108h127v278h684z"/><path fill="#feed00" d="M4376 3007h46v80h-46zm142-107h27v187h-27zm924 107h46v80h-46zm-116-107h27v187h-27z"/><path d="M6228 8598V5527c0-138-112-250-250-250H4585m3740 4366v-13c0-99 81-180 180-180h582" stroke="#63b13a" stroke-width="35" class="B C"/></svg>