<svg xmlns="http://www.w3.org/2000/svg" viewBox="0 0 171 136"><path d="M86 .4a84 84 0 0 1 84 80.3l-19.5 3.6c-3.2 0-6.5-1.6-9.8-3s-8-3.8-12.7-3.8c-8 0-14 6.8-19.5 6.8S94.8 77.5 86 77.5s-14 6.8-19.5 6.8-13.7-6.8-22.5-6.8c-4.3 0-7.9 1.9-11.4 3.8s-5.5 3-8.1 3L2 80.7A84 84 0 0 1 86 .4z" fill="#fefefe"/><path d="M34.7,27.2a77,77,0,0,1,30-16.6L70.5,31A56.2,56.2,0,0,0,48.8,43Zm-21.2,32a76,76,0,0,1,17.2-28L46,45.8A54.5,54.5,0,0,0,33.5,66.2Zm126.9-29a77,77,0,0,1,18.1,29l-20,6.9a56.5,56.5,0,0,0-13-21Zm-33-19.6a76.8,76.8,0,0,1,28.8,15.7l-13.8,16a56,56,0,0,0-21-11.4ZM86,7.6a79,79,0,0,1,15.8,1.6L97.5,30a58.3,58.3,0,0,0-23,0L70.2,9.2A79,79,0,0,1,86,7.6Z" fill="#49cc03"/><path d="M134,67.8a50.5,50.5,0,0,0-12-19.3l-8,8a39.9,39.9,0,0,1,9.3,14.9ZM49.3,49A51.5,51.5,0,0,0,38,67.7l10.7,3.7A40.4,40.4,0,0,1,57.5,57ZM72,35.5a50.2,50.2,0,0,0-19.9,11L59.7,55A38.7,38.7,0,0,1,75,46.4Zm24.6-.9a53,53,0,0,0-21,0L78,45.7a42.4,42.4,0,0,1,16.2,0ZM119.3,46A48.7,48.7,0,0,0,100,35.6L96.8,46.4a39.8,39.8,0,0,1,14.9,8.1Z" fill="#8ae900"/><path d="M119.6,72.7a34.8,34.8,0,0,0-8.4-13.4L105,65.5a27.8,27.8,0,0,1,6.4,10.1Z" fill="#d0ff1b"/><path d="M160.2,64.3a82.5,82.5,0,0,1,2.5,16c-4,1.9-8.2,4-12.2,4s-5.9-1.3-9-2.7a60.1,60.1,0,0,0-1.7-11.8Z" fill="#49cc03"/><path d="M136.6 79.4a44.8 44.8 0 0 0-1.5-8.3L124 74a27.3 27.3 0 0 1 .8 3.9c4.1-1 8 0 11.7 1.5h.1z" fill="#8ae900"/><path d="M121.2 79a34 34 0 0 0-.8-4.1l-8.5 2.3a28 28 0 0 1 .9 6l8.4-4.2z" fill="#d0ff1b"/><path d="M11.8,64.7A81.2,81.2,0,0,0,9.3,79.9c5,2,10.2,4.4,15.2,4.4a13,13,0,0,0,5.9-1.8A58.4,58.4,0,0,1,32.1,70Z" fill="#49cc03"/><path d="M35.4 79.8a55.6 55.6 0 0 1 1.4-8.5l11 3a25.2 25.2 0 0 0-.7 3.4c-4.5-.7-7.8.2-11.7 2.1z" fill="#8ae900"/><path d="M51,78.7a20.2,20.2,0,0,1,.6-3.4l8.5,2.2a30.2,30.2,0,0,0-.8,4.9l-8.4-3.7H51Zm9.4-19a35.7,35.7,0,0,0-8,13l8.2,2.9a26.8,26.8,0,0,1,6-9.8ZM76,50.3a35.7,35.7,0,0,0-13.8,7.6L68,64.4a25.3,25.3,0,0,1,10.5-5.8Zm17.3-.7a39,39,0,0,0-14.8,0l1.9,8.5a29.2,29.2,0,0,1,11,0Zm15.9,7.9a35,35,0,0,0-13.4-7.3l-2.5,8.4a27.8,27.8,0,0,1,10.2,5.5Z" fill="#d0ff1b"/><path d="M86,60a24.3,24.3,0,0,1,24.3,24c-7,1.7-14.7-6.6-24.3-6.6-8,0-13.9,6.9-19.5,6.9a13.9,13.9,0,0,1-4.8-1A24.3,24.3,0,0,1,86,60Z" fill="#ffe600"/><path d="M2,81c7.5,2.3,14.7,6.8,22.5,6.8S37.1,81,44,81s14.7,6.8,22.5,6.8S79.1,81,86,81s14.7,6.8,22.5,6.8S121.1,81,128,81s14.7,6.8,22.5,6.8,15.8-6,19.5-6.8" fill="none" stroke="#fefefe" stroke-width="8"/><path d="M31 119.1V117a.7.7 0 0 1 .3-.7h12.9a.7.7 0 0 1 .3.7v2.2a1.2 1.2 0 0 1-.3 1l-.7.2a1.1 1.1 0 0 1-1-.4 1.6 1.6 0 0 1-.3-1v-1.6H39v13.2a1.3 1.3 0 0 1-.3 1 1.7 1.7 0 0 1-1.1.3 1 1 0 0 1-1-1v-13.5h-3.4v1.5a1.3 1.3 0 0 1-.3 1.1 1.1 1.1 0 0 1-1 .4q-.9 0-.9-1.2zm16.2 11.6v-13.5a1 1 0 0 1 .9-1.1h8.6a.7.7 0 0 1 .3.7v2a1.1 1.1 0 0 1-.3.8.8.8 0 0 1-.7.2 1.3 1.3 0 0 1-1-.3 1.6 1.6 0 0 1-.3-1.1v-1.2h-5.1v5.8h4.6l.5.2a.6.6 0 0 1 .2.4v.4a.2.2 0 0 0-.2.2h-5v6.4h5.6v-1.3a1.6 1.6 0 0 1 .3-1 1.3 1.3 0 0 1 1-.4.8.8 0 0 1 .7.3 1 1 0 0 1 .3.8v2a.7.7 0 0 1-.3.6l-1 .2h-8a1 1 0 0 1-1-1v-.2h.1zm13.3 0v-13.5a1 1 0 0 1 .3-.8.8.8 0 0 1 .7-.3h10a1 1 0 0 1 .7.3 1.1 1.1 0 0 1 .3.8v13.5a1.1 1.1 0 0 1-.2.9.8.8 0 0 1-.8.2 1.1 1.1 0 0 1-1-.4 1.8 1.8 0 0 1-.3-1.3v-12.8h-7.3v13.1a1.7 1.7 0 0 1-.3 1.1 1.6 1.6 0 0 1-1 .3 1 1 0 0 1-1.1-.9zm14.6-.1a.6.6 0 0 1 .3-.6l1-.4a3.5 3.5 0 0 0 2-2.4 9.4 9.4 0 0 0 .5-2.2 15.4 15.4 0 0 0 .2-2.3v-5.5a1 1 0 0 1 .3-.8.8.8 0 0 1 .7-.3h7.3a1 1 0 0 1 1 1v13.5a1.1 1.1 0 0 1-.2.9.8.8 0 0 1-.7.2 1.3 1.3 0 0 1-1.1-.4 2.2 2.2 0 0 1-.4-1.3v-12.7h-5.2v2.2l-.2 5a17.5 17.5 0 0 1-.6 3.5l-.6 1.2-.8 1.3-1.1 1a2.7 2.7 0 0 1-1.4.3.7.7 0 0 1-.6-.3 1.4 1.4 0 0 1-.4-1zm17.8.1v-13.5a1.3 1.3 0 0 1 .2-.8.9.9 0 0 1 .8-.3 1.4 1.4 0 0 1 1 .4 2 2 0 0 1 .4 1.3v11l7.2-12 .4-.4.3-.2h.6a1 1 0 0 1 1 1v13.5a1.1 1.1 0 0 1-.2.9.8.8 0 0 1-.7.2 1.3 1.3 0 0 1-1.1-.4 2.2 2.2 0 0 1-.4-1.3v-11l-7 11.9-.3.4-.5.2-.7.2a1 1 0 0 1-1-1zm16.4 0v-13.5a1.3 1.3 0 0 1 .3-.8.8.8 0 0 1 .7-.3 1.4 1.4 0 0 1 1 .4 2 2 0 0 1 .4 1.3v12.9h6.7v-13.2a1.6 1.6 0 0 1 .3-1.1 1.3 1.3 0 0 1 1-.3.9.9 0 0 1 .8.2 1.1 1.1 0 0 1 .3.9v13.4h.6l1 .2a.8.8 0 0 1 .3.6v3a1 1 0 0 1-.9 1.1h-.1a1.5 1.5 0 0 1-1-.3 1.6 1.6 0 0 1-.3-1.1v-2.3h-10a1 1 0 0 1-1.1-1.1zm16.3 0v-13.5a1 1 0 0 1 .3-.8.8.8 0 0 1 .7-.3 1.4 1.4 0 0 1 1 .4 2 2 0 0 1 .4 1.3v5.2h2.7l2.2.2a5.2 5.2 0 0 1 1.7.7 3.3 3.3 0 0 1 1.1 1.4 5.1 5.1 0 0 1 .4 2 5.5 5.5 0 0 1-.2 1.5 3.6 3.6 0 0 1-.5 1.1l-.8.8-1 .6-1 .3h-6a1 1 0 0 1-1-1zm2.4 0h2.3l1-.2.8-.3.8-.5a3.5 3.5 0 0 0 .5-1 4.3 4.3 0 0 0 .2-1.4 3 3 0 0 0-.8-2.5 4 4 0 0 0-2.5-.7H128v6.5zm10.5-.6v-12.6a1.3 1.3 0 0 1 .4-1.1 1.2 1.2 0 0 1 1-.3.9.9 0 0 1 1 1v13.6a1.5 1.5 0 0 1-.2.8.9.9 0 0 1-.8.3 1.2 1.2 0 0 1-1-.5 1.8 1.8 0 0 1-.4-1.2zM31 106.7V94.3a.9.9 0 0 1 .8-1h4.4c3 0 4.5 1.3 4.5 3.7a2.6 2.6 0 0 1-.2 1 2.7 2.7 0 0 1-.4 1l-.7.7-1 .4 1.3.5 1 .8a3.8 3.8 0 0 1 .6 1 3.6 3.6 0 0 1 .2 1.2 4 4 0 0 1-.3 1.6 3.4 3.4 0 0 1-.7 1.2 2.9 2.9 0 0 1-1 .7l-1 .5-1.2.3H32a.9.9 0 0 1-1-1.1zm2.2 0H36l1-.2 1-.5a3 3 0 0 0 .8-1 3.4 3.4 0 0 0 .4-1.5 3 3 0 0 0-.4-1.3 2.8 2.8 0 0 0-.8-.9l-1-.5h-3.8v6zm0-7.1h2.4l1-.2.9-.5.6-.8a2.6 2.6 0 0 0 .3-1.3 2 2 0 0 0-.3-1.2 2.2 2.2 0 0 0-.7-.8l-1-.4h-3.2v5.2zm10.5.9a10 10 0 0 1 0-1.3 8.3 8.3 0 0 1 .4-1.6 7.6 7.6 0 0 1 .6-1.5 4.2 4.2 0 0 1 1.2-1.5 4.4 4.4 0 0 1 1.6-1 6.6 6.6 0 0 1 2.4-.3 6.4 6.4 0 0 1 2.4.3 5.1 5.1 0 0 1 2.9 2.5 5.6 5.6 0 0 1 .6 1.6 13.3 13.3 0 0 1 .3 1.6v2.4a6.6 6.6 0 0 1-.3 1.6 6.4 6.4 0 0 1-1.7 3 6.2 6.2 0 0 1-1.7 1 8 8 0 0 1-5 0 6.2 6.2 0 0 1-1.6-1 6 6 0 0 1-1.1-1.5 7 7 0 0 1-.7-1.6 14.4 14.4 0 0 1-.2-1.5 9.2 9.2 0 0 1 0-1.2h-.1zm2.4 0v1l.2 1.4a5.4 5.4 0 0 0 .4 1.4 4.5 4.5 0 0 0 1.7 2 4 4 0 0 0 1.6.3l1.4-.3a2.8 2.8 0 0 0 1.1-.8 5 5 0 0 0 .8-1.1 4.3 4.3 0 0 0 .3-1.3 5 5 0 0 0 .2-1.4 9.1 9.1 0 0 0 0-1.3V98a5.4 5.4 0 0 0-.4-1.4 4.7 4.7 0 0 0-.7-1.2 3 3 0 0 0-1.1-.8 3.5 3.5 0 0 0-1.6-.4 3.4 3.4 0 0 0-1.4.4l-1 .7a4.3 4.3 0 0 0-.8 1.2 5.4 5.4 0 0 0-.4 1.4 5 5 0 0 0-.2 1.4 8.3 8.3 0 0 0 0 1.2zm11.6 6.1a.8.8 0 0 1 .2-.6l.9-.4a3.2 3.2 0 0 0 2-2.2 7.3 7.3 0 0 0 .3-2l.2-2.1v-5a1.5 1.5 0 0 1 .2-.9l.7-.2H69a.9.9 0 0 1 1 1v12.5a1.1 1.1 0 0 1-.3.7.8.8 0 0 1-.7.3 1.3 1.3 0 0 1-1-.4 2.1 2.1 0 0 1-.3-1.2V94.4H63v2a45.4 45.4 0 0 1-.2 4.6 14.3 14.3 0 0 1-.6 3.2 4.3 4.3 0 0 1-.5 1.2l-.8 1a3.4 3.4 0 0 1-1 1 2.5 2.5 0 0 1-1.2.4.9.9 0 0 1-.7-.4 1.2 1.2 0 0 1-.3-.7zm15.3.3a.8.8 0 0 1 .3-.6l5.2-6.4-5-5.8-.2-.2a.6.6 0 0 1 .2-.5l.5-.2a1 1 0 0 1 .8.4l5.2 6.2h.4v-5.5a1.5 1.5 0 0 1 .2-.9 1.2 1.2 0 0 1 1.9 1.1v5.3h.3l5.3-6.2a1 1 0 0 1 .8-.4l.5.2a.6.6 0 0 1 .2.5.4.4 0 0 1 0 .2l-5.2 5.8 5.3 6.5a.8.8 0 0 1 .2.5.7.7 0 0 1-.2.6l-.5.2-1-.2a2 2 0 0 1-.9-.8L83 101h-.3v5.6a1.1 1.1 0 0 1-1.2 1.3 1 1 0 0 1-.8-.3 1.1 1.1 0 0 1-.2-.8V101H80l-4.5 5.8a1.9 1.9 0 0 1-1.7 1 .8.8 0 0 1-.7-.2.7.7 0 0 1-.1-.6zm18.2-6.3a10 10 0 0 1 .5-3.3A8 8 0 0 1 93 95a5.1 5.1 0 0 1 2-1.3 6.2 6.2 0 0 1 2.5-.5h1l1.2.2.9.3.5.3a1.4 1.4 0 0 1 .2.6V96a1.4 1.4 0 0 1-.2.8l-.7.2a1.3 1.3 0 0 1-.9-.3 1.4 1.4 0 0 1-.3-1v-1l-1.5-.3a3.9 3.9 0 0 0-1.7.4 3.4 3.4 0 0 0-1.3 1.2 5.7 5.7 0 0 0-.9 2 11.2 11.2 0 0 0-.3 2.7 12 12 0 0 0 .3 3 4.6 4.6 0 0 0 .9 1.8 3.3 3.3 0 0 0 1.3 1 5.4 5.4 0 0 0 2 .3l1.1-.2 1.5-.3.4-.2h.5a.7.7 0 0 1 .1.4.3.3 0 0 1-.2.4h-.1l-.4.2-1.7.5-1.9.2a8.5 8.5 0 0 1-2.7-.5 4.2 4.2 0 0 1-1.9-1.4 6 6 0 0 1-1.1-2.2 11.3 11.3 0 0 1-.4-3.1zm12.8 6V94.4a1.5 1.5 0 0 1 .2-.8l.7-.2a1.3 1.3 0 0 1 1 .4 2 2 0 0 1 .3 1.2v5h.5l6-6.2a1.3 1.3 0 0 1 .8-.4l.5.2a.7.7 0 0 1 .3.5v.2l-5.9 5.8 6 6.5a.8.8 0 0 1 .2.5.7.7 0 0 1-.2.6.8.8 0 0 1-.7.2l-.8-.2a2.8 2.8 0 0 1-1-.8l-5.1-5.8h-.5v5.5a1.4 1.4 0 0 1-.3 1 1.3 1.3 0 0 1-1 .3.9.9 0 0 1-.9-.9v-.3zm12.4 0V94.4a1 1 0 0 1 .3-.8l.6-.2a1.1 1.1 0 0 1 1 .4 1.6 1.6 0 0 1 .3 1.2v10l6.7-11 .2-.3.2-.2.3-.2h.5a.9.9 0 0 1 1 1v12.4a1.1 1.1 0 0 1-.2.8.9.9 0 0 1-.7.2 1.1 1.1 0 0 1-1-.3 1.7 1.7 0 0 1-.3-1.3v-10l-6.7 11-.2.3-.4.3h-.6a.9.9 0 0 1-1-1v-.2zm15.2 0V94.4a.9.9 0 0 1 .8-1h7.1l.9.2a.7.7 0 0 1 .3.6V96a1.4 1.4 0 0 1-.2.8l-.7.2a1 1 0 0 1-.8-.3 1.5 1.5 0 0 1-.4-1v-1.1h-4.8v5.3h4.3l.4.2a.5.5 0 0 1 .1.4v.2a.3.3 0 0 0 0 .2h-4.8v5.9h5.2v-1.1a1.4 1.4 0 0 1 .2-1 1.3 1.3 0 0 1 1-.3.7.7 0 0 1 .6.2.9.9 0 0 1 .2.8v1.6a.6.6 0 0 1-.3.6l-.9.2h-7.2a.9.9 0 0 1-1-1v-.3z" fill="#25a000"/></svg>