<svg xmlns="http://www.w3.org/2000/svg" viewBox="0 0 199 45"><path d="M42.8 0A42.3 42.3 0 0 1 85 40.4l-9.8 1.8a13 13 0 0 1-4.9-1.5 14.7 14.7 0 0 0-6.4-1.9c-4 0-7 3.4-9.8 3.4s-6.9-3.4-11.3-3.4-7 3.4-9.8 3.4-6.9-3.4-11.3-3.4a11.9 11.9 0 0 0-5.7 1.9 9.5 9.5 0 0 1-4.1 1.5L.6 40.4A42.3 42.3 0 0 1 42.8 0z" fill="#fefefe"/><path d="M17 13.5a38.7 38.7 0 0 1 15.1-8.3l3 10.2a28.3 28.3 0 0 0-10.9 6zM6.3 29.6A38.3 38.3 0 0 1 15 15.5l7.7 7.4a27.4 27.4 0 0 0-6.3 10.3zM70.2 15a38.8 38.8 0 0 1 9.1 14.6l-10 3.5a28.5 28.5 0 0 0-6.6-10.6zM53.5 5.2A38.7 38.7 0 0 1 68 13.1l-7 8a28.2 28.2 0 0 0-10.5-5.7zM42.8 3.7a39.8 39.8 0 0 1 8 .8l-2.2 10.3a29.4 29.4 0 0 0-11.5 0L34.8 4.4a39.8 39.8 0 0 1 8-.7zm37.3 28.5a41.5 41.5 0 0 1 1.2 8.1c-2 .9-4.1 2-6.1 2a11.4 11.4 0 0 1-4.5-1.4 30.3 30.3 0 0 0-.9-5.9zm-74.6.2A40.9 40.9 0 0 0 4.2 40c2.5 1 5.1 2.2 7.6 2.2a6.6 6.6 0 0 0 3-.9 29.4 29.4 0 0 1 .9-6.2z" fill="#49cc03"/><path d="M67 33.9a25.4 25.4 0 0 0-6-9.7l-4.1 4.1a20.1 20.1 0 0 1 4.7 7.5zm-42.7-9.4a25.9 25.9 0 0 0-5.7 9.4l5.4 1.9a20.4 20.4 0 0 1 4.5-7.3zm11.4-6.8a25.3 25.3 0 0 0-10 5.5l3.8 4.3a19.5 19.5 0 0 1 7.8-4.3zm12.4-.5a26.7 26.7 0 0 0-10.6 0l1.2 5.6a21.4 21.4 0 0 1 8.2 0zm11.4 5.7a24.5 24.5 0 0 0-9.6-5.2l-1.6 5.5a20 20 0 0 1 7.5 4.1zm8.8 16.9a22.5 22.5 0 0 0-.7-4.2L62 37a13.7 13.7 0 0 1 .4 1.9 9.9 9.9 0 0 1 5.9.9zm-51 .2a28 28 0 0 1 .7-4.3l5.5 1.5a12.7 12.7 0 0 0-.4 1.8 8.9 8.9 0 0 0-5.8 1z" fill="#8ae900"/><path d="M59.7 36.4a17.5 17.5 0 0 0-4.2-6.8l-3.1 3.1a14 14 0 0 1 3.2 5.1zm.8 3.2a17.1 17.1 0 0 0-.4-2.1l-4.3 1.1a14.1 14.1 0 0 1 .4 3c1.4-.5 2.9-1.4 4.3-2zm-35.4-.2l.4-1.7 4.3 1.1a15.2 15.2 0 0 0-.4 2.5l-4.3-1.9zm4.8-9.5a18 18 0 0 0-4 6.6l4.1 1.4a13.5 13.5 0 0 1 3-4.9zm7.9-4.8a18 18 0 0 0-7 3.8l2.9 3.3a12.7 12.7 0 0 1 5.3-2.9zm8.7-.3a19.6 19.6 0 0 0-7.4 0l.9 4.3 2.8-.3 2.8.3zm8 4a17.6 17.6 0 0 0-6.7-3.7l-1.2 4.2a14 14 0 0 1 5.1 2.7z" fill="#d0ff1b"/><path d="M42.8 30A12.2 12.2 0 0 1 55 42.1c-3.6.8-7.4-3.3-12.2-3.3s-7 3.4-9.8 3.4a7 7 0 0 1-2.4-.5A12.2 12.2 0 0 1 42.8 30z" fill="#ffe600"/><path d="M17.5 43.1a12 12 0 0 1-5.6 1.9 17.8 17.8 0 0 1-6.4-1.4l-2-.8L0 41.5 1 38l4 1.5 1.7.7a14.4 14.4 0 0 0 5.1 1.2c1.2 0 2.4-.6 4.1-1.5h.1a12 12 0 0 1 5.7-1.9 15.2 15.2 0 0 1 6.3 1.8h.1a12.2 12.2 0 0 0 4.9 1.6c1.2 0 2.4-.6 4.1-1.5h.1a12 12 0 0 1 5.7-1.9 15.2 15.2 0 0 1 6.3 1.8h.1a12.2 12.2 0 0 0 4.9 1.6c1.2 0 2.4-.6 4.1-1.5h.1a12 12 0 0 1 5.7-1.9 15.2 15.2 0 0 1 6.3 1.8h.1a12.2 12.2 0 0 0 4.9 1.6 12.9 12.9 0 0 0 4.8-1.4l1.4-.7 1.1-.5A11.5 11.5 0 0 1 85 38l.7 3.5-1.5.6-.9.4-1.6.7a16.2 16.2 0 0 1-6.2 1.8 15 15 0 0 1-6.3-1.8h-.1a12.2 12.2 0 0 0-4.9-1.6c-1.2 0-2.4.6-4.1 1.5h-.2a12 12 0 0 1-5.6 1.9 15 15 0 0 1-6.3-1.8h-.1a12.2 12.2 0 0 0-4.9-1.6c-1.2 0-2.4.6-4.1 1.5h-.2a12 12 0 0 1-5.6 1.9 15 15 0 0 1-6.3-1.8h-.1a12.2 12.2 0 0 0-4.9-1.6c-1.2 0-2.4.6-4.1 1.5h-.2z" fill="#fefefe"/><path d="M96.3 28.9v-2.1a.6.6 0 0 1 .2-.6h12a.7.7 0 0 1 .3.6v2.1a1.1 1.1 0 0 1-.2.8 1 1 0 0 1-.7.2 1.1 1.1 0 0 1-.9-.4 1.5 1.5 0 0 1-.3-1v-1.3h-3.1v12.2a1.2 1.2 0 0 1-.3 1 1.6 1.6 0 0 1-1 .3.9.9 0 0 1-.9-1V27.2h-3.1v1.4a1.2 1.2 0 0 1-.3 1 1.1 1.1 0 0 1-.9.4c-.6 0-.8-.3-.8-1.1zm15 10.8V27.1a.9.9 0 0 1 1-1h7.9a.7.7 0 0 1 .3.6v1.8a1 1 0 0 1-.2.8.7.7 0 0 1-.7.2 1.2 1.2 0 0 1-.9-.3 1.5 1.5 0 0 1-.3-1v-1h-4.9v5.4h4.3l.4.2a.5.5 0 0 1 .2.4 1.4 1.4 0 0 0-.1.2v.2h-4.7v5.9h5.2v-1a1.5 1.5 0 0 1 .3-1 1.2 1.2 0 0 1 .9-.3.7.7 0 0 1 .7.2.9.9 0 0 1 .2.8v1.7a.6.6 0 0 1-.3.6l-1 .2h-7.3a.9.9 0 0 1-1-1zm12.3 0V27.1a.9.9 0 0 1 .2-.8.7.7 0 0 1 .7-.2h9.2a1 1 0 0 1 .7.2 1 1 0 0 1 .2.8v12.6a1 1 0 0 1-.2.8.7.7 0 0 1-.7.2 1.1 1.1 0 0 1-1-.4 1.7 1.7 0 0 1-.4-1.2V27.2h-6.7v12.2a1.6 1.6 0 0 1-.3 1 1.5 1.5 0 0 1-1 .3.9.9 0 0 1-.7-1zm13.6-.1a.6.6 0 0 1 .2-.5l.9-.4a3.3 3.3 0 0 0 1.9-2.2 8.7 8.7 0 0 0 .4-2 14.3 14.3 0 0 0 .2-2.2v-5.2a.9.9 0 0 1 .2-.8.7.7 0 0 1 .7-.2h6.8a.9.9 0 0 1 1 1v12.6a1 1 0 0 1-.2.8.7.7 0 0 1-.7.2 1.2 1.2 0 0 1-1-.4 2.1 2.1 0 0 1-.3-1.2V27.2h-4.9v2l-.2 4.6a16.2 16.2 0 0 1-.6 3.3 6.3 6.3 0 0 1-.5 1.1l-.8 1.1-1 .9a2.5 2.5 0 0 1-1.3.4.7.7 0 0 1-.6-.4 1.3 1.3 0 0 1-.2-.6zm16.5.1V27.1a1.2 1.2 0 0 1 .2-.8.8.8 0 0 1 .7-.2 1.3 1.3 0 0 1 1 .4 1.8 1.8 0 0 1 .4 1.2v10.1l6.7-11 .2-.3.2-.2.4-.2h.5a.9.9 0 0 1 1 1v12.6a1 1 0 0 1-.2.8.7.7 0 0 1-.7.2 1.2 1.2 0 0 1-1-.4 2.1 2.1 0 0 1-.3-1.2V28.9l-6.7 11-.2.4-.4.2h-.7a.9.9 0 0 1-1.1-.8zm15.2 0V27.1a1.2 1.2 0 0 1 .2-.8.7.7 0 0 1 .7-.2 1.3 1.3 0 0 1 1 .4 1.8 1.8 0 0 1 .3 1.2v11.9h6.2V27.4a1.5 1.5 0 0 1 .3-1 1.2 1.2 0 0 1 1-.3.8.8 0 0 1 .7.2 1 1 0 0 1 .2.8v12.5h1.6a.7.7 0 0 1 .3.6V43a.9.9 0 0 1-.9 1 1.3 1.3 0 0 1-.9-.3 1.5 1.5 0 0 1-.3-1v-2h-9.5a.9.9 0 0 1-.9-1zm15.1 0V27.1a.9.9 0 0 1 .2-.8.7.7 0 0 1 .7-.2 1.3 1.3 0 0 1 1 .4 1.8 1.8 0 0 1 .3 1.2v4.9h2.5l2 .2a4.9 4.9 0 0 1 1.6.7 3.1 3.1 0 0 1 1 1.3 4.8 4.8 0 0 1 .4 1.9 5.1 5.1 0 0 1-.2 1.4 3.3 3.3 0 0 1-.5 1l-.7.7-.9.5-1 .3h-5.5a.9.9 0 0 1-.9-.9zm2.2-.1h3l.8-.2a2.3 2.3 0 0 0 .7-.5 3.2 3.2 0 0 0 .5-.9 4 4 0 0 0 .2-1.3 2.8 2.8 0 0 0-.8-2.3 3.7 3.7 0 0 0-2.3-.7h-2.1v6zm9.7-.5V27.4a1.2 1.2 0 0 1 .4-1 1.1 1.1 0 0 1 1-.3.8.8 0 0 1 .9 1v12.6a1.4 1.4 0 0 1-.2.8.8.8 0 0 1-.7.2 1.1 1.1 0 0 1-1-.4 1.7 1.7 0 0 1-.4-1.2zM96.3 17.5V6a.8.8 0 0 1 .9-1h3.9c2.8 0 4.2 1.1 4.2 3.4a2.4 2.4 0 0 1-.2.9 2.5 2.5 0 0 1-.4.9l-.7.7-.9.4 1.3.4.9.7.5.9a3.3 3.3 0 0 1 .1 1.1 3.7 3.7 0 0 1-.2 1.5 3.1 3.1 0 0 1-.6 1.1 2.6 2.6 0 0 1-.9.7l-1 .4-1.1.2h-4.9a.8.8 0 0 1-.9-.8zm2-.1h3.5l.9-.4a2.8 2.8 0 0 0 .8-.9 3.1 3.1 0 0 0 .3-1.4 2.8 2.8 0 0 0-.3-1.3 2.6 2.6 0 0 0-.8-.8l-1-.5h-3.4v5.5zm0-6.5h3.1l.8-.5a2.7 2.7 0 0 0 .6-.8 2.4 2.4 0 0 0 .2-1.2 1.9 1.9 0 0 0-.2-1.1 2.1 2.1 0 0 0-.7-.7l-.9-.4h-2.9v4.9zm9.8.8a9.3 9.3 0 0 1 .1-1.2 7.7 7.7 0 0 1 .3-1.4 7 7 0 0 1 .5-1.4 3.9 3.9 0 0 1 1.1-1.3 4.1 4.1 0 0 1 1.6-1 6.1 6.1 0 0 1 2.2-.4 5.9 5.9 0 0 1 2.2.4 4.3 4.3 0 0 1 1.6 1 4.3 4.3 0 0 1 1 1.3 5.2 5.2 0 0 1 .6 1.5 12.3 12.3 0 0 1 .3 1.4l.1 1.1-.1 1.1a6.2 6.2 0 0 1-.3 1.4 5.2 5.2 0 0 1-.6 1.5 5.2 5.2 0 0 1-1 1.3 5.7 5.7 0 0 1-1.6 1 7.4 7.4 0 0 1-4.6 0 5.7 5.7 0 0 1-1.6-1 5.5 5.5 0 0 1-1-1.4 6.5 6.5 0 0 1-.6-1.5 13.4 13.4 0 0 1-.2-1.4 8.5 8.5 0 0 1 0-1zm2.2 0v1l.2 1.3a5 5 0 0 0 .4 1.3 3.3 3.3 0 0 0 .7 1.1 3.2 3.2 0 0 0 1 .8 3.6 3.6 0 0 0 1.4.3 4.3 4.3 0 0 0 1.4-.3 2.6 2.6 0 0 0 1-.7 4.7 4.7 0 0 0 .7-1.1 4 4 0 0 0 .4-1.2 4.6 4.6 0 0 0 .2-1.3 8.4 8.4 0 0 0 .1-1.2v-1l-.2-1.3a5 5 0 0 0-.4-1.3 4.3 4.3 0 0 0-.7-1.1 2.7 2.7 0 0 0-1-.8 3.2 3.2 0 0 0-1.4-.3 3.1 3.1 0 0 0-1.4.3 2.9 2.9 0 0 0-1 .7A4 4 0 0 0 111 8a5 5 0 0 0-.4 1.3 4.6 4.6 0 0 0-.2 1.3 7.6 7.6 0 0 0-.1 1.1zm10.8 5.7a.7.7 0 0 1 .2-.5l.8-.4a3 3 0 0 0 1.8-2 6.8 6.8 0 0 0 .4-1.9l.2-2V6a1.4 1.4 0 0 1 .2-.8l.7-.2h6.3a.8.8 0 0 1 .8 1v11.5a1 1 0 0 1-.2.7.7.7 0 0 1-.7.2 1.2 1.2 0 0 1-.9-.4 2 2 0 0 1-.3-1.1V6H126v1.9a42.1 42.1 0 0 1-.2 4.3 13.2 13.2 0 0 1-.6 3 4 4 0 0 1-.4 1.1l-.7 1a3.1 3.1 0 0 1-1 .8 2.3 2.3 0 0 1-1.1.4.8.8 0 0 1-.6-.3 1.2 1.2 0 0 1-.3-.8zm14.1.3a.7.7 0 0 1 .2-.5l4.9-6-4.7-5.3v-.3a.5.5 0 0 1 .2-.4l.5-.2a.9.9 0 0 1 .7.4l4.9 5.7h.4V6a1.4 1.4 0 0 1 .2-.8l.5-.2a1 1 0 0 1 .8.2 1.1 1.1 0 0 1 .3.9V11h.3l4.9-5.7a.9.9 0 0 1 .7-.3l.5.2a.5.5 0 0 1 .2.4.4.4 0 0 1-.1.2l-4.7 5.3 4.9 6a.7.7 0 0 1 .2.5.7.7 0 0 1-.2.5l-.5.2-.9-.2a1.9 1.9 0 0 1-.8-.8l-4.1-5.4h-.3v5.2a1.2 1.2 0 0 1-.3.9 1.2 1.2 0 0 1-.8.2 1 1 0 0 1-.7-.2 1 1 0 0 1-.2-.7v-5.2h-.4l-4.1 5.4a1.9 1.9 0 0 1-.8.8l-.8.2a.8.8 0 0 1-.6-.2.7.7 0 0 1-.3-.6zm16.9-5.9a9.2 9.2 0 0 1 .4-3.1 7.5 7.5 0 0 1 1.2-2.2 4.7 4.7 0 0 1 1.9-1.2 5.7 5.7 0 0 1 2.3-.4h2l.8.2.5.3a1.3 1.3 0 0 1 .1.6v1.5a1.3 1.3 0 0 1-.2.7l-.6.2a1.2 1.2 0 0 1-.8-.3 1.3 1.3 0 0 1-.3-1v-1l-1.3-.1a3.6 3.6 0 0 0-1.6.4 3.1 3.1 0 0 0-1.2 1.1 5.3 5.3 0 0 0-.8 1.9 10.4 10.4 0 0 0-.3 2.5 11.2 11.2 0 0 0 .3 2.7 4.3 4.3 0 0 0 .8 1.7 3.1 3.1 0 0 0 1.3.9 5 5 0 0 0 1.7.3l1.1-.2 1.3-.4.4-.2h.1l.4.2a.6.6 0 0 1 .1.4.3.3 0 0 1-.2.4h-.4l-1.6.5-1.7.2a7.9 7.9 0 0 1-2.5-.4 3.9 3.9 0 0 1-1.7-1.3 5.5 5.5 0 0 1-1.1-2 10.4 10.4 0 0 1-.4-2.9zm11.9 5.7V6a1.4 1.4 0 0 1 .2-.8l.7-.2a1.2 1.2 0 0 1 .9.4 1.8 1.8 0 0 1 .3 1.1v4.6h.4l5.5-5.7a1.2 1.2 0 0 1 .8-.4l.5.2a.6.6 0 0 1 .2.4v.2l-5.5 5.4 5.5 6a.7.7 0 0 1 .2.5.7.7 0 0 1-.2.5.8.8 0 0 1-.6.2l-.8-.2a2.6 2.6 0 0 1-.9-.8l-4.7-5.4h-.4v5.1a1.3 1.3 0 0 1-.3 1 1.2 1.2 0 0 1-.9.3.8.8 0 0 1-.9-.9zm11.5 0V6a1 1 0 0 1 .2-.8l.6-.2a1.1 1.1 0 0 1 .9.4 1.5 1.5 0 0 1 .3 1.1v9.4l6.2-10.1.4-.4h.8a.8.8 0 0 1 .9 1v11.1a1 1 0 0 1-.2.7.8.8 0 0 1-.7.2 1.1 1.1 0 0 1-.9-.4 1.6 1.6 0 0 1-.3-1.1V7.6l-6.2 10.1-.2.3-.4.2h-.6a.8.8 0 0 1-.8-.7zm14 0V6a.8.8 0 0 1 .9-1h7.3a.7.7 0 0 1 .3.6v1.7a1.3 1.3 0 0 1-.2.7 1.1 1.1 0 0 1-.7.2.9.9 0 0 1-.8-.3 1.4 1.4 0 0 1-.3-1V6h-4.5v4.9h4l.4.2a.4.4 0 0 1 .1.4v.4h-4.4v5.4h4.8v-1a1.3 1.3 0 0 1 .2-1 1.2 1.2 0 0 1 .8-.3.6.6 0 0 1 .6.2.8.8 0 0 1 .2.7v1.6a.5.5 0 0 1-.3.5l-.8.2h-6.7a.8.8 0 0 1-.9-.7z" fill="#25a000"/></svg>