<?xml version="1.0" standalone="no"?>
<!DOCTYPE svg PUBLIC "-//W3C//DTD SVG 20010904//EN"
 "http://www.w3.org/TR/2001/REC-SVG-20010904/DTD/svg10.dtd">
<svg version="1.0" xmlns="http://www.w3.org/2000/svg"
 width="512.000000pt" height="512.000000pt" viewBox="0 0 512.000000 512.000000"
 preserveAspectRatio="xMidYMid meet">
<metadata>
Created by potrace 1.14, written by Peter Selinger 2001-2017
</metadata>
<g transform="translate(0.000000,512.000000) scale(0.100000,-0.100000)"
fill="#000000" stroke="none">
<path d="M4186 4828 c-52 -48 -25 -128 43 -128 78 0 105 107 34 139 -35 16
-49 14 -77 -11z"/>
<path d="M4504 4820 c-26 -10 -54 -48 -54 -72 0 -23 41 -67 65 -69 35 -3 45 1
65 21 53 53 -8 147 -76 120z"/>
<path d="M3918 4743 c-22 -6 -46 -58 -40 -88 11 -59 109 -72 135 -17 31 64
-23 124 -95 105z"/>
<path d="M4765 4680 c-77 -29 -55 -144 26 -142 18 0 41 9 51 20 22 22 27 74 9
96 -18 21 -63 34 -86 26z"/>
<path d="M4205 4540 c-151 -38 -255 -124 -325 -265 -45 -90 -54 -129 -52 -231
5 -419 511 -641 826 -363 130 115 195 306 160 474 -25 126 -113 254 -222 323
-110 71 -259 94 -387 62z m210 -145 c81 -21 166 -86 209 -160 139 -236 -30
-528 -304 -527 -155 0 -294 110 -333 262 -58 224 122 445 353 435 25 -2 59 -6
75 -10z"/>
<path d="M3702 4534 c-54 -22 -56 -101 -4 -127 37 -19 85 -5 100 28 16 36 15
48 -8 77 -25 33 -49 39 -88 22z"/>
<path d="M4926 4429 c-30 -24 -36 -78 -10 -103 59 -60 155 0 123 76 -21 51
-68 62 -113 27z"/>
<path d="M3569 4251 c-33 -26 -32 -86 1 -113 46 -37 120 -2 120 57 0 63 -72
96 -121 56z"/>
<path d="M4995 4125 c-14 -13 -25 -36 -25 -50 0 -14 11 -37 25 -50 13 -14 36
-25 50 -25 14 0 37 11 50 25 14 13 25 36 25 50 0 14 -11 37 -25 50 -13 14 -36
25 -50 25 -14 0 -37 -11 -50 -25z"/>
<path d="M3570 3948 c-57 -61 14 -152 89 -114 66 34 39 136 -35 136 -21 0 -41
-8 -54 -22z"/>
<path d="M4932 3820 c-37 -35 -24 -102 23 -120 33 -13 80 5 94 36 16 35 14 47
-10 78 -26 33 -75 35 -107 6z"/>
<path d="M3701 3683 c-70 -58 15 -170 87 -116 33 25 43 60 26 94 -21 43 -75
53 -113 22z"/>
<path d="M4769 3590 c-9 -5 -22 -23 -29 -40 -11 -28 -11 -34 7 -58 31 -41 67
-50 100 -26 34 26 44 61 27 95 -19 38 -67 51 -105 29z"/>
<path d="M3940 3497 c-54 -27 -51 -110 6 -133 38 -16 73 -1 92 40 17 35 2 78
-34 95 -31 14 -33 14 -64 -2z"/>
<path d="M4502 3427 c-49 -52 -6 -136 63 -123 42 9 59 30 59 72 0 67 -77 99
-122 51z"/>
<path d="M4220 3407 c-14 -7 -28 -26 -34 -45 -20 -69 68 -122 122 -72 61 57
-12 155 -88 117z"/>
<path d="M1150 3090 c-19 -5 -51 -11 -70 -14 -19 -3 -66 -15 -105 -27 -428
-132 -744 -528 -771 -968 -4 -53 -7 -447 -8 -876 l-1 -780 -75 -3 c-63 -2 -79
-6 -99 -26 -19 -20 -22 -30 -17 -60 14 -72 -222 -66 2559 -66 l2508 0 24 25
c31 30 32 66 3 100 -21 23 -30 26 -100 27 l-76 1 0 821 c0 452 -3 846 -7 876
-29 251 -138 474 -320 655 -171 170 -347 262 -595 309 -63 13 -290 15 -1445
14 -753 0 -1386 -4 -1405 -8z m75 -587 l0 -428 -438 -2 -437 -1 6 51 c17 130
79 292 162 416 135 204 403 370 642 398 25 3 47 7 49 9 14 13 16 -54 16 -443z
m225 434 c184 -22 435 -160 557 -305 26 -31 51 -59 54 -62 17 -15 99 -164 122
-220 35 -89 44 -124 61 -242 l6 -37 -435 1 c-321 0 -435 3 -436 11 -3 27 -5
853 -2 859 2 3 11 4 21 2 9 -2 33 -5 52 -7z m842 -2 c205 -36 388 -137 538
-297 49 -52 74 -71 97 -74 54 -6 93 47 73 101 -14 38 -172 191 -250 243 l-65
43 201 -2 c295 -2 408 -29 601 -140 121 -69 270 -226 341 -358 31 -58 79 -180
88 -224 2 -12 6 -33 9 -47 3 -14 8 -44 11 -66 l5 -42 -357 2 c-350 1 -357 1
-359 21 -4 53 -18 127 -37 198 -22 82 -42 107 -88 107 -32 0 -46 -9 -63 -43
-12 -24 -11 -36 9 -112 12 -46 24 -104 26 -127 l3 -43 -338 -2 c-252 -1 -337
1 -338 10 0 7 -2 21 -4 32 -2 11 -5 36 -8 55 -15 114 -77 286 -144 395 -72
118 -185 244 -273 305 -19 13 -37 27 -40 30 -3 3 -21 16 -40 28 l-35 22 182
-1 c101 -1 215 -8 255 -14z m1693 2 c117 -29 162 -44 231 -77 45 -20 110 -57
145 -81 77 -52 193 -168 241 -240 75 -113 136 -261 152 -365 4 -21 9 -53 12
-70 l6 -32 -341 0 c-247 0 -341 3 -342 12 -1 6 -2 22 -3 36 -23 289 -223 620
-476 789 l-65 43 210 -5 c116 -3 219 -7 230 -10z m-3152 -1016 c4 -1 7 -93 7
-205 l0 -205 -245 0 -245 -1 0 204 c0 127 4 206 10 208 8 2 447 2 473 -1z
m765 0 c9 -1 12 -49 12 -205 l0 -204 -310 0 -310 -1 0 204 c0 127 4 205 10
207 8 2 555 2 598 -1z m640 0 c9 -1 12 -49 12 -206 l0 -205 -245 1 -245 0 0
203 c0 111 2 205 4 207 3 3 423 3 474 0z m835 0 c4 -1 7 -93 7 -206 l0 -204
-337 2 -338 2 -2 195 c-1 107 -1 200 1 205 2 6 120 9 332 8 181 -1 332 -2 337
-2z m862 0 c8 -1 11 -181 6 -381 l-1 -29 -355 0 -355 0 0 204 c0 127 4 205 10
207 8 2 660 2 695 -1z m818 0 c16 -1 17 -18 17 -205 l0 -204 -337 1 -338 2 -1
198 c0 181 1 200 17 205 14 5 551 7 642 3z m-3945 -560 l32 -1 0 -65 0 -65
-122 0 c-106 0 -128 -3 -156 -20 -57 -35 -59 -51 -60 -394 0 -171 -1 -329 -1
-352 l-1 -41 -75 -1 -75 -1 0 469 0 469 23 3 c18 2 238 2 435 -1z m790 -1 c9
0 12 -52 12 -224 0 -204 2 -226 19 -247 26 -32 86 -32 112 0 15 19 19 40 19
107 l0 84 94 0 94 0 0 -329 0 -329 -94 0 -94 0 0 81 c0 104 -6 124 -40 142
-34 18 -57 14 -86 -14 -22 -21 -24 -31 -24 -116 l0 -92 -310 0 -310 0 0 468 0
468 43 3 c32 2 499 1 565 -2z m610 0 l42 0 0 -469 0 -470 -75 1 c-74 1 -75 1
-76 27 0 14 -1 172 -1 351 0 359 -2 375 -60 410 -28 17 -50 20 -155 20 l-123
0 0 64 c0 78 -19 72 230 69 96 -1 194 -2 218 -3z m825 1 l47 -1 0 -134 c0
-117 -3 -139 -20 -169 -20 -33 -22 -34 -63 -26 -72 13 -170 -4 -232 -42 -30
-18 -31 -18 -92 13 -66 32 -145 41 -230 25 l-41 -8 0 168 c0 92 1 170 3 173 2
4 317 4 628 1z m904 -5 c7 -6 8 -354 1 -361 -3 -3 -25 4 -50 15 -52 23 -138
32 -191 21 -34 -8 -38 -7 -57 24 -30 49 -96 104 -156 132 -56 25 -147 34 -216
19 l-38 -8 0 83 0 84 351 -2 c193 -1 353 -4 356 -7z m781 5 l52 -1 0 -189 0
-190 -53 25 c-73 33 -167 38 -243 12 -32 -11 -66 -26 -77 -33 -16 -11 -27 -9
-84 17 -53 25 -78 31 -142 32 l-78 1 0 160 c0 88 4 162 8 165 6 4 231 4 617 1z
m-3878 -610 l0 -328 -92 1 -93 1 -2 327 -2 327 87 3 c48 2 90 2 95 0 4 -2 7
-151 7 -331z m2602 288 c41 -21 79 -72 97 -131 20 -61 62 -78 122 -47 48 24
112 31 155 15 90 -31 169 -135 105 -137 -35 -1 -663 -1 -678 0 -10 1 -13 37
-13 144 0 137 1 143 23 156 52 34 124 33 189 0z m-838 -169 c12 -4 41 -24 66
-45 51 -43 85 -42 129 1 61 62 144 75 229 38 l52 -23 0 -50 c0 -42 -3 -51 -17
-52 -21 -1 -633 -1 -650 0 -9 1 -13 18 -13 50 0 42 4 51 27 66 51 34 114 39
177 15z m1640 0 c12 -4 41 -24 66 -45 52 -43 86 -42 135 4 40 38 63 49 114 55
50 5 93 -7 139 -41 33 -25 66 -76 60 -94 -2 -6 -46 -11 -101 -12 -92 -2 -99
-4 -117 -27 -27 -34 -25 -72 4 -99 23 -21 34 -23 125 -23 l101 0 0 -83 0 -82
-337 1 -338 1 -1 70 c-1 39 1 76 3 82 4 9 29 13 82 12 90 -1 108 5 124 40 17
33 11 64 -15 87 -16 15 -38 19 -107 21 l-86 2 -1 65 c-1 62 0 66 25 75 27 10
87 6 125 -9z m-1166 -366 l3 -81 -340 0 -340 0 1 83 1 82 336 -1 336 -2 3 -81z
m863 73 c1 -13 1 -111 0 -138 -1 -15 -34 -17 -356 -16 l-355 0 0 82 0 82 355
1 c262 0 355 -3 356 -11z"/>
</g>
</svg>
