<svg xmlns="http://www.w3.org/2000/svg" width="25" height="13.75" viewBox="0 0 20 11.4" data-svg="vk"><path d="M19.8 10.2a9 9 0 0 0-2-2.3c-1.7-1.6-1.4-1.3.6-4 1.2-1.6 1.7-2.6 1.6-3a1.2 1.2 0 0 0-1-.4h-3a.6.6 0 0 0-.7.4 17.4 17.4 0 0 1-1.1 2.4c-1.4 2.3-2 2.4-2.1 2.2-.6-.3-.4-1.3-.4-2 0-2.2.3-3-.7-3.3a9.3 9.3 0 0 0-3.9.1c-.3.2-.6.5-.4.6a1.4 1.4 0 0 1 .9.4 2.9 2.9 0 0 1 .3 1.4s.1 2.5-.5 2.9C6.5 6 4.7 2 4.3 1a.9.9 0 0 0-.7-.5H.6a1 1 0 0 0-.5.2.6.6 0 0 0 0 .5s2.2 5.3 4.7 8a7.4 7.4 0 0 0 6.2 2.2.7.7 0 0 0 .7-.8s0-1.6.7-1.8 1.7 1.5 2.7 2.2a1.9 1.9 0 0 0 1.3.4h2.7s1.4-.1.7-1.2z"></path></svg>